<mxfile host="app.diagrams.net" modified="2024-01-02T22:00:54.013Z" agent="Mozilla/5.0 (Windows NT 10.0; Win64; x64) AppleWebKit/537.36 (KHTML, like Gecko) Chrome/119.0.0.0 Safari/537.36 OPR/105.0.0.0" version="22.1.16" etag="u9xmYQHrBA5F2cnxY2lT" type="github">
  <diagram name="Page-1" id="daxayaxgQW1lkfNiGyxj">
    <mxGraphModel>
      <root>
        <mxCell id="0" />
        <mxCell id="1" parent="0" />
      </root>
    </mxGraphModel>
  </diagram>
</mxfile>
